<?xml version="1.0" encoding="UTF-8" standalone="no"?>
<!-- Created with Inkscape (http://www.inkscape.org/) -->

<svg
   xmlns:dc="http://purl.org/dc/elements/1.1/"
   xmlns:cc="http://creativecommons.org/ns#"
   xmlns:rdf="http://www.w3.org/1999/02/22-rdf-syntax-ns#"
   xmlns:svg="http://www.w3.org/2000/svg"
   xmlns="http://www.w3.org/2000/svg"
   xmlns:sodipodi="http://sodipodi.sourceforge.net/DTD/sodipodi-0.dtd"
   xmlns:inkscape="http://www.inkscape.org/namespaces/inkscape"
   width="210mm"
   height="297mm"
   viewBox="0 0 744.09448819 1052.3622047"
   id="svg2"
   version="1.1"
   inkscape:version="0.91 r13725"
   sodipodi:docname="lps-identity.svg"
   inkscape:export-filename="/home/ian/workspace/land-registry/ukhpi/app/assets/images/lps-identity.png"
   inkscape:export-xdpi="38.45295"
   inkscape:export-ydpi="38.45295">
  <defs
     id="defs4">
    <linearGradient
       id="linearGradient3399"
       spreadMethod="pad"
       gradientTransform="matrix(510.363,-294.658,-294.658,-510.363,223.862,617.006)"
       gradientUnits="userSpaceOnUse"
       y2="0"
       x2="1"
       y1="0"
       x1="0">
      <stop
         id="stop3401"
         offset="0"
         style="stop-opacity:1;stop-color:#80c528" />
      <stop
         id="stop3403"
         offset="0.393258"
         style="stop-opacity:1;stop-color:#80c528" />
      <stop
         id="stop3405"
         offset="0.62388494"
         style="stop-opacity:1;stop-color:#8b8823" />
      <stop
         id="stop3407"
         offset="0.674157"
         style="stop-opacity:1;stop-color:#8b8823" />
      <stop
         id="stop3409"
         offset="1"
         style="stop-opacity:1;stop-color:#8b8823" />
    </linearGradient>
    <linearGradient
       id="linearGradient3419"
       spreadMethod="pad"
       gradientTransform="matrix(254.665,63.4951,63.4951,-254.665,373.94,370.268)"
       gradientUnits="userSpaceOnUse"
       y2="0"
       x2="1"
       y1="0"
       x1="0">
      <stop
         id="stop3421"
         offset="0"
         style="stop-opacity:1;stop-color:#724c1a" />
      <stop
         id="stop3423"
         offset="0.207865"
         style="stop-opacity:1;stop-color:#724c1a" />
      <stop
         id="stop3425"
         offset="0.73572821"
         style="stop-opacity:1;stop-color:#8b8823" />
      <stop
         id="stop3427"
         offset="0.775281"
         style="stop-opacity:1;stop-color:#8b8823" />
      <stop
         id="stop3429"
         offset="1"
         style="stop-opacity:1;stop-color:#8b8823" />
    </linearGradient>
  </defs>
  <sodipodi:namedview
     id="base"
     pagecolor="#ffffff"
     bordercolor="#666666"
     borderopacity="1.0"
     inkscape:pageopacity="0.0"
     inkscape:pageshadow="2"
     inkscape:zoom="0.35"
     inkscape:cx="-117.85714"
     inkscape:cy="520"
     inkscape:document-units="px"
     inkscape:current-layer="layer1"
     showgrid="false"
     inkscape:window-width="1920"
     inkscape:window-height="1136"
     inkscape:window-x="0"
     inkscape:window-y="27"
     inkscape:window-maximized="1" />
  <metadata
     id="metadata7">
    <rdf:RDF>
      <cc:Work
         rdf:about="">
        <dc:format>image/svg+xml</dc:format>
        <dc:type
           rdf:resource="http://purl.org/dc/dcmitype/StillImage" />
        <dc:title></dc:title>
      </cc:Work>
    </rdf:RDF>
  </metadata>
  <g
     inkscape:label="Layer 1"
     inkscape:groupmode="layer"
     id="layer1">
    <g
       transform="matrix(1.8670082,0,0,-1.8670082,163.86393,339.78004)"
       inkscape:label="ink_ext_XXXXXX"
       id="g3379">
      <g
         transform="scale(0.1,0.1)"
         id="g3381">
        <path
           inkscape:connector-curvature="0"
           id="path3383"
           style="fill:#ffffff;fill-opacity:1;fill-rule:evenodd;stroke:none"
           d="m 155.41,866.891 c 1.055,-3.86 -3.957,-1.641 -3.594,-4.805 -3.211,1.394 -0.105,6.375 3.594,4.805" />
        <path
           inkscape:connector-curvature="0"
           id="path3385"
           style="fill:#ffffff;fill-opacity:1;fill-rule:evenodd;stroke:none"
           d="m 136.211,852.484 c 2.004,0 4.004,0 6.008,0 0.426,-4.089 -6.946,-5.058 -6.008,0" />
        <path
           inkscape:connector-curvature="0"
           id="path3387"
           style="fill:#ffffff;fill-opacity:1;fill-rule:evenodd;stroke:none"
           d="m 135.012,845.289 c 0.879,-3.273 -2.383,-2.414 -2.395,-4.797 -2.922,0.754 -0.637,6.055 2.395,4.797" />
        <path
           inkscape:connector-curvature="0"
           id="path3389"
           style="fill:#ffffff;fill-opacity:1;fill-rule:evenodd;stroke:none"
           d="m 16.2109,612.484 c 6.5899,-1.347 2.6289,-8.125 4.8047,-14.394 -6.5234,2.305 -7.207,9.043 -4.8047,14.394" />
        <path
           inkscape:connector-curvature="0"
           id="path3391"
           style="fill:#ffffff;fill-opacity:1;fill-rule:evenodd;stroke:none"
           d="m 797.41,226.098 c -1.582,-2.832 -2.867,-5.918 -7.195,-5.996 0.754,3.652 2.668,6.125 7.195,5.996" />
        <path
           inkscape:connector-curvature="0"
           id="path3393"
           style="fill:#ffffff;fill-opacity:1;fill-rule:evenodd;stroke:none"
           d="m 640.215,154.086 c -1.184,-3.203 -5.02,-3.777 -8.399,-4.785 -1.308,5.703 3.899,4.883 8.399,4.785" />
        <path
           inkscape:connector-curvature="0"
           id="path3395"
           style="fill:#ffffff;fill-opacity:1;fill-rule:evenodd;stroke:none"
           d="m 460.215,94.0859 c -4.258,1.2618 -9.024,-0.7031 -12,1.211 2.957,2.3242 10.547,3.5078 12,-1.211" />
        <path
           inkscape:connector-curvature="0"
           id="path3397"
           style="fill:#ffffff;fill-opacity:1;fill-rule:evenodd;stroke:none"
           d="m 462.617,96.4805 c 4.434,-0.7539 11.953,1.5703 14.395,-1.1836 -1.453,-2.6953 -13.809,-3.6016 -14.395,1.1836" />
        <path
           inkscape:connector-curvature="0"
           id="path3411"
           style="fill:url(#linearGradient3399);fill-opacity:1;fill-rule:evenodd;stroke:none"
           d="m 582.617,475.68 c 1.016,3.797 4.219,5.398 4.793,9.59 -2.281,4.113 -2.039,10.769 -9.597,9.609 -1.133,-6.359 3.664,-6.77 6.003,-9.609 1.235,-4.016 -3.738,-1.875 -6.003,-2.375 l 0,-6.004 c -0.379,-3.176 6.73,1.121 4.804,-3.606 -5.722,-1.816 -2.988,0.977 -8.398,1.211 -0.031,2.832 2.058,3.527 1.191,7.188 0.203,2.589 -4.25,0.539 -5.996,1.211 -3.769,-1.68 1.649,-5.918 -1.199,-7.215 -3.879,-1.075 -1.692,3.925 -3.598,4.812 -7.312,-0.293 -5.242,-9.969 -10.801,-11.992 2.356,-6.66 11.02,-3.855 9.602,-13.203 -0.449,-2.93 -4.59,-14.16 -9.988,-15.918 -2.395,-8.406 -0.422,-16.797 -6.719,-25.195 -6.125,0.117 -10.559,-5.293 -15.539,-6.309 -4.777,2.023 -11.621,3.43 -10.918,10.918 -11.887,-1.484 -13.113,-3.633 -23.086,-2.527 -5.625,5.984 -13.43,12.781 -18.059,19.754 0.52,2.668 -5.613,7.031 -2.937,7.558 0.273,5.137 1.824,5.774 4.621,10.481 2.281,2.246 7.637,0.164 10.625,0.027 -7.285,18.613 12.293,29.707 21.602,39.574 1.57,5.207 -5.715,1.5 -4.805,6.028 1.707,3.574 3.711,0.019 6.004,3.593 -1.477,3.672 -4.578,-1.738 -6.004,1.211 2.613,6.543 5.672,12.969 2.398,19.199 3.391,0.176 3.008,-3.398 4.797,-4.804 5.266,-0.059 11.238,-0.84 12,3.593 0.188,2.989 -1.883,3.731 -2.398,6.016 -3.879,1.484 -0.91,-3.887 -4.797,-2.402 -0.02,2.383 -3.274,1.523 -2.402,4.804 8.007,0.391 11.589,5.196 18,7.188 2.847,-0.742 5.582,-1.602 6.003,-4.805 2.676,0.528 4.278,2.129 4.793,4.805 3.235,0.82 2.329,-2.481 3.606,-3.594 2.695,2.539 7.91,0.86 8.398,-2.402 1.575,-5.176 -5.715,-1.485 -4.797,-5.996 -3.32,3.476 -11.355,2.246 -18.003,2.402 -4.258,-3.418 -8.11,-10.058 -3.594,-15.605 4.246,-0.645 2.949,4.238 7.195,3.593 3.992,-7.421 16.516,6.719 21.602,9.61 4.433,-4.063 4.355,0.254 10.8,0 -3.203,-5.196 -7.929,-8.887 -6.003,-19.199 3.882,-1.485 0.917,3.886 4.8,2.402 2.356,-2.852 2.055,-8.359 5.996,-9.609 3.325,0.8 -3.339,6.289 3.606,4.804 0.144,3.457 -0.652,7.852 1.203,9.59 1.062,-0.918 2.703,-1.289 4.793,-1.191 -2.981,-4.18 4.551,-13.145 -1.199,-16.813 6.441,-3.863 6.851,-19.414 -2.395,-20.398 z m 187.196,-51.594 c 5.929,6.172 -3.719,15.391 0,22.805 -1.415,0.183 -3.407,-0.207 -3.602,1.199 0.809,1.699 7.344,3.711 3.602,5.996 -2.125,-0.106 -5.079,-2.969 -7.196,-1.191 -2.246,5.449 4.766,1.64 3.594,5.996 -4.512,2.004 -5.457,-5.586 -7.195,-2.411 3.711,2.95 -3.45,-1.3 -2.407,1.219 2.637,5.059 8.379,4.551 10.801,7.188 -5.027,1.133 -6.972,0 -9.597,4.797 2.16,-4.856 -6.407,-7.395 -4.793,-1.184 -6.133,0.918 -3.059,-7.352 -7.207,-8.398 0.066,2.043 -0.918,3.066 -2.395,3.586 -4.07,-7.422 -3.898,-14.836 -2.402,-24.004 -5.078,1.082 -1.219,-6.77 -6.004,-5.996 0.144,-3.458 -0.657,-7.844 1.199,-9.602 -2.512,0.098 -4.5,-2.488 -5.996,-1.191 l 0,3.585 c 1.531,-0.05 1.66,-1.542 3.601,-1.183 -4.273,11.152 4.289,16.758 -2.398,28.789 2.332,2.473 3.34,6.262 4.793,9.602 -3.008,1.582 -2.91,-5.586 -4.793,-1.211 3.086,4.949 5.945,8.953 1.199,7.207 3.281,4.148 0.391,7.011 3.594,10.808 -2.266,0.274 -2.648,-1.347 -4.793,-1.191 0.867,2.715 -2.172,9.324 2.398,8.371 -4.668,4.914 -4.175,15.043 -9.605,19.223 0.098,-2.09 -0.266,-3.731 -1.191,-4.805 1.882,-0.117 4.16,0.156 3.589,-2.402 -3.25,1.347 -8.269,2.343 -7.195,-3.61 2.234,-1.152 4.016,3.61 4.797,0 2.977,-2.867 -3.106,-1.988 -1.191,-7.223 -3.286,0.118 -2.422,-1.996 -4.805,0 -0.727,-4.464 -2.817,-7.55 -4.797,-10.765 -2.102,4.277 2.961,6.074 -1.199,10.765 4.48,0.317 4.644,4.961 5.996,8.415 -5.317,2.691 -5.559,5.093 -5.996,10.816 -2.903,-1.094 -4.895,-3.106 -6.008,-5.996 0.918,-1.895 3.809,-1.797 3.602,-4.82 -0.293,-2.11 -2.059,-2.75 -4.801,-2.391 0.015,2.383 3.281,1.523 2.398,4.809 -7.769,4.902 -6.719,16.718 -10.801,26.406 -2.324,5.508 -6.16,10.996 -8.394,16.797 -4.25,11.039 -9.953,21.675 -13.203,32.398 1.726,-1.34 2.926,-1.289 3.601,1.199 -2.968,3.242 -5.82,3.039 -2.402,7.2 -2.063,0.476 -3.074,-1.778 -3.594,0 1.594,5.214 0.676,6.699 -1.199,10.8 -3.012,1.582 -3.762,-4.746 -4.809,-1.203 1.938,9.082 -10.625,12.188 -7.195,24.004 -4.578,1.074 -7.656,-1.961 -9.601,0 0.023,2.383 3.273,1.524 2.406,4.797 -2.981,1.562 -5.832,-2.676 -6.008,0 -0.266,2.273 1.355,2.656 1.199,4.805 -2.058,0.468 -3.074,-1.778 -3.594,0 0.039,7.234 -7.839,6.562 -8.406,13.203 1.633,0.371 2.293,1.707 4.805,1.191 l 0,-4.797 c 2.961,0.157 5.781,0.188 7.195,-1.199 1.672,1.934 1.02,6.191 3.606,7.195 0.261,-2.265 -1.36,-2.644 -1.203,-4.793 8.117,2.227 8.175,-12.14 16.796,-13.203 0.746,3.856 -4.312,1.649 -1.199,4.805 3.762,-6.105 2.031,2.148 6.008,2.391 2.098,-4.246 -0.805,-2.95 -1.203,-7.196 7.344,2.149 5.508,-4.894 10.801,-4.797 -0.078,3.516 -3.672,3.528 -4.805,5.997 1.355,1.445 3.43,2.179 2.402,5.996 -1.601,2.949 -3.625,-2.157 -4.797,1.203 1.34,1.863 3.899,2.5 3.594,6.004 -5.176,0.019 -5.125,5.273 -9.597,5.996 0.109,1.894 3.066,0.937 2.402,3.605 -6.692,3.309 -18.172,14.024 -22.805,21.602 -1.726,2.84 -0.027,7.996 -4.793,8.398 -1.738,-4.543 3.289,-2.304 2.395,-6.008 -10.657,-0.254 -10.864,9.942 -22.793,8.411 1.25,4.89 -3.84,5.253 -4.809,1.191 0.129,9.102 -16.851,1.316 -17.996,12 -4.934,-4.422 -4.894,1.262 -4.797,1.203 -0.215,0.137 -7.222,1.688 -10.801,2.402 -12.546,2.489 -27.156,1.602 -33.601,3.594 -3.418,1.063 -6.602,0.281 -8.399,2.403 0.684,2.109 -1.457,7.05 1.204,7.207 1.882,-0.118 0.933,-3.067 3.589,-2.403 -2.285,11.406 -12.183,-2.316 -19.199,-1.203 l 0,3.606 -9.597,0 c -1.485,-3.887 3.886,-0.918 2.402,-4.805 -3.887,1.484 -0.918,-3.887 -4.805,-2.402 -3.789,-0.586 -0.437,5.957 -4.797,4.804 -0.203,-1.797 0.434,-4.433 -1.199,-4.804 -0.488,1.511 -1.543,2.449 -3.601,2.402 -0.188,-1.418 0.203,-3.41 -1.196,-3.606 -13.824,4.856 -30.965,-11.336 -39.605,3.606 -7.676,-1.516 -15.735,-2.656 -18,-9.602 -9.629,5.188 -32.356,-8.992 -44.395,-12 -0.273,0.938 -0.039,2.371 -1.199,2.403 -2.656,-1.731 1.504,-2.93 -1.203,-3.606 -4.988,2.715 -5.547,-2.5 -8.399,-4.793 -0.742,-0.597 -2.824,0.547 -3.601,0 -0.981,-0.695 -1.086,-2.715 -2.402,-3.605 -6.907,-4.668 -17.754,-10.371 -25.2,-8.399 -4.754,-4.648 -12.422,-9.355 -21.597,-5.996 -8.196,-6.804 -22.578,-12.558 -25.2,-22.801 -0.3,-1.152 2.5,-2.656 2.395,-4.804 -0.148,-2.969 -3.457,-1.328 -2.395,-4.797 2.102,-0.332 5.989,3.379 7.2,0 -0.887,-5.742 -6.524,-11.453 -4.805,-19.199 -6.184,-1.922 -11.563,-15.731 -19.199,-8.399 2.519,2.676 7.48,2.922 8.398,7.199 -2.859,0.731 -8.699,-1.503 -9.597,1.2 -0.442,4.043 5.046,2.148 4.8,5.996 -2.664,0.937 -6.504,0.695 -7.195,3.605 0.137,3.457 5.117,2.078 4.797,5.996 -6.496,2.547 -11.008,-6.34 -19.199,-5.996 -3.403,1.883 2.714,6.426 -1.203,8.399 -8,-5.207 -10.625,-15.782 -19.2,-20.403 0.313,-3.515 -2.715,-3.691 -2.402,-7.195 -14.641,-10.969 -24.641,-26.563 -39.602,-37.207 -1.882,0.516 -1.023,3.777 -4.793,2.402 -8.281,-10.519 -21.328,-16.281 -30,-26.402 0.223,-4.16 4.239,-4.551 4.793,-8.398 -8.777,-17.618 -28.972,-23.829 -37.195,-42.016 2.109,-0.695 7.051,1.437 7.195,-1.223 -2.988,-9.765 -8.242,-17.304 -13.191,-25.156 1.785,-0.195 4.426,0.43 4.797,-1.191 -1.262,-11.153 -7.043,-17.774 -5.996,-31.211 3.765,-0.567 3.164,3.214 5.996,3.586 11.082,-8.379 -1.067,-22.461 3.601,-33.586 4.102,6.211 4.082,-0.547 8.399,4.797 0.207,-1.797 -0.43,-4.426 1.199,-4.797 5.488,4.101 9.406,9.797 15.598,13.203 0.312,-3.914 -1.426,-5.789 -4.793,-5.996 1.804,-10.215 -5.434,-11.375 -6.008,-19.207 4.355,-0.051 3.855,-4.934 7.207,-5.996 -6.008,-2.805 -6.707,-10.891 -6.008,-20.403 6.633,0.625 9.438,-2.578 12.004,-5.996 -0.945,-2.976 -0.012,-12.898 0,-15.605 4.102,2.187 6.543,0.625 9.602,-1.192 7.195,2.403 9.531,9.668 16.797,11.985 3.589,-7.317 -3.625,-6.399 -3.594,-13.204 l 8.394,0 c -1.023,-7.421 7.219,-5.558 4.797,-14.386 3.86,-1.055 2.488,3.105 4.805,3.586 -2.442,-6.008 2.656,-5.383 5.996,-8.391 2.266,2.129 -1.641,3.711 2.402,4.805 1.532,-1.66 5.664,-0.742 7.2,-2.41 0.789,2.527 3.179,5.332 1.199,7.207 -3.117,0.214 -8.035,-3.84 -9.602,-1.211 1.535,2.703 5.805,4.961 1.203,7.215 5.215,-0.418 9.27,11.777 3.606,14.394 -0.742,-3.269 1.519,-9.519 -1.203,-10.809 -3.25,11.239 2.468,25.985 -9.602,22.821 11.274,11.328 15.285,30.039 25.195,39.59 -4.519,-4.911 -2.39,-9.832 -2.398,-17.996 2.547,-3.059 5.352,3.562 8.406,0 -1.433,-2.571 -1.301,-6.711 -3.601,-8.418 2.871,-0.715 8.711,1.531 9.597,-1.184 1.407,-15 -3.633,-23.563 -2.402,-38.398 3.367,0.644 6.238,1.75 9.602,2.402 2.617,-2.527 -0.598,-3.445 0,-7.207 3.882,-0.508 10.378,1.582 10.796,-2.41 -1.179,-2.805 -6.004,-1.992 -5.996,-5.996 3.711,-1.926 4.66,-1.036 7.2,-2.395 -0.008,-2.391 -3.274,-1.523 -2.403,-4.812 5.449,-0.051 8.567,2.996 10.801,-2.375 9.641,8.75 15.574,21.23 26.406,28.789 3.645,1.152 12.168,-2.559 11.992,2.402 -3.254,0.742 -9.519,-1.523 -10.793,1.184 4.321,2.097 4.797,8.015 9.602,9.617 l 0,-5.996 c 3.879,-1.493 0.906,3.879 4.797,2.402 0.066,3.645 -4.32,2.871 -3.606,7.18 2.278,-0.266 2.657,1.375 4.805,1.211 2.629,-18.164 -9.836,-31.067 -9.601,-44.414 3.847,-1.028 2.492,3.125 4.796,3.621 2.598,-2.578 0.618,-6.719 -1.191,-8.399 4.121,0.696 4.48,-4.726 7.195,-6.015 0.735,-0.332 6.821,0.332 7.2,0 0.175,-0.137 -0.176,-2.371 0,-2.383 6.015,-0.801 11.335,4.492 16.796,2.383 -5.421,16.367 8.965,40.703 19.207,37.207 3.176,7.226 9.204,19.914 11.25,28.254 11.196,-10.383 277.954,-107.461 277.954,-107.461 5.078,-0.266 6.089,3.496 9.597,4.812 0.988,3.379 -1.687,3.106 -1.199,5.996 6.348,4.844 9.336,13.067 20.398,13.196 4.344,4.851 9.207,9.187 15.594,11.992 8.235,14.988 18.945,27.461 31.203,38.406 l 0,7.207 c 7.52,7.207 9.153,24.23 20.403,24.004 8.535,14.668 8.472,37.91 13.203,56.387 -0.024,1.601 -2.114,1.113 -2.406,2.402" />
        <path
           inkscape:connector-curvature="0"
           id="path3413"
           style="fill:#757272;fill-opacity:1;fill-rule:evenodd;stroke:none"
           d="m 281.797,86.3516 c 3.348,-1.4141 3.254,3.9453 -0.051,2.4023 1.738,3.1641 7.695,0.6367 9.602,0.1758 15.957,-3.9258 37.715,-12.7422 59.148,-18.0859 13.027,-3.2618 30.18,-5.4688 45.766,-8.75 8.054,-1.6797 27.222,-5.3985 42.129,-6.3868 49.031,-3.2812 108.328,-0.0781 158.281,7.793 9.098,1.4258 18.094,5.3516 27.469,7.7148 5.976,1.504 12.539,1.2618 17.949,2.7344 5.89,1.6016 14.109,4.7774 20.281,6.3867 6.027,1.5547 13.305,6.2227 15.664,-3.3007 -7.82,-1.4844 -15.738,-4.6485 -23.855,-7.6563 -13.555,-5.0391 -27.317,-10.9062 -42.918,-15.2148 -5.5,-1.5235 -10.957,-1.4844 -19.16,-2.7735 -5.825,-0.8984 -11.664,-4.0234 -17.903,-5.1367 -2.363,-0.4297 -6.047,0.332 -8.406,-0.1562 -19.934,-4.0625 -55.18,-8.3008 -107.934,-5.3125 -73.843,4.1796 -97.371,15.1093 -122.793,20.1484 -4.578,5.5859 -13.093,4.707 -19.324,6.8633 -6.418,2.207 -11.836,7.7148 -19.336,6.8359 -1.633,3.5938 -5.468,4.9024 -10.886,4.5899 -5.54,7.6953 -19.219,6.9531 -23.11,16.3671 7.395,-2.1171 16.699,-2.2343 19.387,-9.2382" />
        <path
           inkscape:connector-curvature="0"
           id="path3415"
           style="fill:#757272;fill-opacity:1;fill-rule:nonzero;stroke:none"
           d="m 790.215,220.102 c 0.754,3.652 2.668,6.125 7.195,5.996 -1.582,-2.832 -2.867,-5.918 -7.195,-5.996 z M 642.617,152.895 c 0.403,1.992 0.801,3.996 1.199,5.996 0.372,-0.098 4.817,-7.149 4.797,-7.207 -2.004,0.41 -3.996,0.793 -5.996,1.211 z m -10.801,-3.594 c -1.308,5.703 3.899,4.883 8.399,4.785 -1.184,-3.203 -5.02,-3.777 -8.399,-4.785 z M 479.414,96.4805 c 7.149,-0.0117 7.031,0.9453 7.195,-4.7969 -3.75,2.1875 -7.586,-1.9141 -7.195,4.7969 z m -16.797,0 c 4.434,-0.7539 11.953,1.5703 14.395,-1.1836 -1.453,-2.6953 -13.809,-3.6016 -14.395,1.1836 z m -14.402,-1.1836 c 2.957,2.3242 10.547,3.5078 12,-1.211 -4.258,1.2618 -9.024,-0.7031 -12,1.211 z M 19.8164,582.484 c -2.7461,0.383 -3.918,9.61 -3.5781,12.434 l 2.3476,-2.969 1.4024,-9.062 -0.1719,-0.403 z m -3.6055,30 c 6.5899,-1.347 2.6289,-8.125 4.8047,-14.394 -6.5234,2.305 -7.207,9.043 -4.8047,14.394 z M 135.012,845.289 c 0.879,-3.273 -2.383,-2.414 -2.395,-4.797 -2.922,0.754 -0.637,6.055 2.395,4.797 z m 7.207,7.195 c 0.426,-4.089 -6.946,-5.058 -6.008,0 l 6.008,0 z m 13.191,14.407 c 1.055,-3.86 -3.957,-1.641 -3.594,-4.805 -3.211,1.394 -0.105,6.375 3.594,4.805 z m 44.403,30 c -3.004,-6.153 -8.434,-10.246 -14.403,-13.203 -2.527,6.433 10.996,13.347 14.403,13.203 z M 863.047,286.188 c -0.547,-0.891 -1.145,-1.77 -1.68,-2.688 -0.969,-0.488 -1.238,-1.648 -2.121,-2.207 -2.234,-1.152 -4.012,3.594 -4.805,0 0.942,-0.273 1.399,-0.996 1.204,-2.402 0.937,-0.098 1.726,-0.059 2.492,0 -0.168,-0.203 -0.278,-0.43 -0.449,-0.645 -1.809,-2.031 -3.735,-4.082 -5.676,-6.074 -0.481,0.137 -1.004,0.637 -1.797,1.914 -0.625,-1.777 -1.777,-3.027 -2.402,-4.785 0.781,-0.059 1.433,0.039 2.109,0.09 -0.281,-0.586 -0.613,-1.145 -0.789,-1.75 -0.039,0.156 -0.168,0.207 -0.117,0.449 l -2.407,0 c -0.066,-0.723 -0.171,-1.426 -1.199,-1.199 0,0 -0.254,-3.586 -0.574,-3.84 -1.523,2.051 -3.598,2.832 -4.223,1.445 2.141,-2.617 0.024,-4.773 -3.601,-4.812 0.078,-1.661 0.683,-2.805 1.621,-3.606 -0.43,-0.527 -0.774,-1.101 -1.094,-1.648 -3.191,1.504 -6.531,2.234 -10.129,1.668 3.281,-0.606 4.887,-2.625 4.809,-5.996 -4.239,0.5 -14.629,-6.582 -10.801,-8.418 -8.75,0.41 -16.43,-14.395 -20.402,-15.586 -1.641,9.57 8.781,10.207 13.203,19.199 1.25,-0.723 2.453,-1.531 3.594,-2.402 0.312,7.148 5.976,9.082 6.003,9.582 -3.336,3.328 5.395,10.535 8.403,8.418 7.605,5.253 5.972,14.812 7.195,17.996 3.856,1.484 0.945,-3.875 4.805,-2.411 -1.043,15.731 -11.914,-11.144 -14.406,-11.984 -0.918,3.75 4.082,1.621 2.406,5.996 -22.18,-23.066 -41.184,-35.82 -64.746,-55.019 -14.668,-11.953 -32.539,-23.438 -49.551,-31.836 -8.859,-4.375 -16.859,-6.758 -20.109,-6.746 -1.895,-2.911 -4.29,-5.305 -7.2,-7.207 -1.718,2.781 1.575,5.75 -2.398,7.207 -0.254,-1.621 -2.883,-13.469 -7.199,-10.793 -0.547,3.574 3.535,3.242 2.402,7.187 -2.449,-3.613 -4.855,-3.613 -7.207,0 -2.941,-8.652 4.519,-6.953 -9.602,-13.183 -1.043,3.125 -1.843,6.328 -2.39,9.582 0.066,-0.039 -9.5,-6.594 -9.602,-5.996 1.418,-5.168 18.821,-0.696 0.879,-5.598 -3.758,-1.016 -9.043,-4.285 -8.086,4.387 -3.152,-0.754 -6.355,-1.145 -9.597,-1.184 -0.04,-1.777 0.792,-2.898 2.492,-3.379 -2.367,2.52 -21.067,-3.32 -24.094,-6.23 1.367,2.402 0.969,4.414 -1.199,6.015 -2.785,-6.679 -25.442,-9.277 -30,-6.015 -1.711,-0.918 -16.172,-12.891 -21.594,-8.399 1.102,0.957 2.297,1.758 3.594,2.395 -2.227,1.902 -4.102,1.668 -5.633,-0.715 -2.484,-2.754 -4.199,-2.117 -5.168,1.926 -1.719,-1.621 -14.773,-9.602 -17.422,-3.625 -1.152,2.589 -14.285,-1.055 -17.09,-1.211 -7.617,-0.43 -5.586,1.621 -11.086,1.23 1.047,-2.351 -20.054,-2.773 -20.957,0.039 -0.039,0.098 -44.058,3.781 -48.64,2.356 1.496,1.797 1.093,2.996 -1.203,3.621 -4.833,-4.258 -20.348,2.297 -30,2.383 0,5.605 -25.583,7.656 -32.403,9.609 -3.621,1.074 -9.097,5.371 -14.39,7.207 -7.024,2.422 -14.661,2.063 -21.602,4.785 -4.855,1.914 -9.672,8.82 -15.605,7.207 -8.704,11.856 -39.004,23.067 -50.403,28.848 -6.086,3.086 -27.715,22.258 -46.555,38.027 -13.535,11.321 -27.144,21.106 -25.437,20.723 9.094,-2.031 -21.609,20.234 -28.809,28.801 -12.148,14.48 -22.695,30.203 -33.593,45.586 -18.914,26.718 -31.219,59.578 -42.1019,89.91 -24.5,68.316 -29.6446,143.508 -15.4961,213.703 3.0273,15.176 9.4922,32.89 9.6015,47.996 1.3868,-0.469 4.9571,9.492 4.793,10.801 -1.4258,11.066 18.5355,31.914 16.8435,41.972 -1.148,6.887 13.215,25.598 16.528,32.227 7.007,14.074 15.066,26.828 24.265,39.57 14.024,19.407 30.567,39.055 49.258,56.301 50.691,46.797 106.008,80.203 170.984,100.789 48.11,15.246 50.637,19.035 93.801,16.543 12.266,-0.711 9.903,7.551 35.801,3.762 8.418,-1.231 10.129,-0.188 15.754,0.281 5.625,0.481 22.09,-1.25 22.691,-0.945 -0.984,-7.93 12.278,-3.918 25.317,-4.688 -2.668,1.192 -8.176,1.699 -9.551,3.301 -1.106,2.891 -4.055,0.273 -5.656,1.074 -1.602,0.801 -4.832,2.617 -4.832,2.617 0,0 -10.481,4.589 -18,1.2 -2.266,8.709 -103.426,2.209 -156.485,-9.793 -50.605,-11.446 -120.027,-49.903 -141.355,-67.727 -8.266,-6.902 -21.836,-20.801 -32.16,-23.281 -0.157,17.023 33.398,23.808 38.398,39.601 -0.398,-0.117 -0.461,-0.05 -0.098,0.118 0.235,0.105 2.793,-1.457 4.895,-1.321 0.84,3.633 4.703,4.239 5.633,7.785 0.566,0.293 3.426,2.52 4.238,3.418 0.371,-0.878 1.035,-1.457 2.129,-1.601 1.301,2.703 4.512,3.496 6.008,5.996 -6.289,-1.856 -8.305,-2.336 -8.254,-2.902 -1.399,-1.055 -3.731,-3.379 -3.75,-3.094 -4.531,-3.977 -7.766,-5.156 -12,-7.199 0.203,-0.047 0.348,-0.157 0.535,-0.223 -7.578,-4.082 -15.293,-7.863 -22.434,-12.813 -10.679,-7.402 -20.398,-16.25 -29.312,-25.695 -6.164,-6.512 -12.949,-10.898 -19.594,-17.676 -2.996,-3.046 -11.023,-9.082 -14.39,-13.191 1.648,3.32 7.996,12.949 8.921,14.07 6.516,-0.84 9.653,8.606 8.032,8.653 0.945,0.957 3.523,1.66 4.636,1.269 0.254,2.266 3.504,6.477 6.004,9.289 -1.297,-1.054 -7.91,-5.136 -8.179,-6.926 -1.543,-1.16 -6.055,-5.476 -5.981,-5.828 -1.094,-1.23 -5.683,-6.211 -5.39,-6.289 -5.614,-6.758 -11.25,-13.566 -15.25,-14.238 0.105,-3.262 5.996,-7.531 2.402,-10.801 -3.703,0.684 -4.504,2.684 -2.402,5.996 -10.325,-5.078 -11.926,-14.523 -20.864,-22.101 -2.769,-2.352 -5.484,-14.453 -12.73,-12.696 2.527,-0.703 2.926,-1.902 1.199,-3.601 -5.313,0.691 -7.676,6.289 -12.004,-2.402 0.988,-0.372 10.441,5.253 9.602,-1.204 -3.028,-3.125 -2.903,1.399 -6.004,1.204 -1.489,-4.036 6.101,-5.235 1.199,-7.2 -0.938,2.891 -2.941,4.492 -5.996,4.797 0.32,-1.613 0.73,-3.215 1.199,-4.797 -5.9374,3.907 -8.0234,-7.488 -8.3945,-10.8 -1.875,0.265 -3.4804,1.066 -4.8047,2.402 -1.2812,-5.301 5.4571,-7.762 -4.7968,-9.598 -0.8867,-3.097 3.6406,-4.844 1.1914,-7.207 -2.2578,1.485 -4.6563,2.684 -7.1992,3.602 0.2461,-4.266 6.3125,-2.5 6.0078,-7.196 -1.4844,0.223 -8.4961,-1.464 -9.5977,-2.402 0.125,-3.223 7.1485,-3.508 3.5899,-7.199 -4.043,-0.438 -2.1094,5.039 -5.9961,4.797 1.457,-2.746 1.0547,-5.137 -1.1993,-7.199 2.7344,0.468 4.2071,-0.586 4.4336,-3.165 -0.8398,-5.156 -5.0976,4.922 -8.039,1.965 0.1289,-4.023 4.9414,-4.121 2.4062,-8.398 -2.9297,0.73 -4.6992,-0.293 -5.3242,-3.086 -0.6055,-1.828 -3.25,-13.399 -4.2773,-13.711 0.5664,2.215 -0.2344,3.418 -2.4024,3.594 1.1602,-5.703 -1.1445,-8.313 -4.7929,-11.992 0.8007,-2.004 1.5898,-4.004 2.3906,-6.008 -5.6524,0 -12.8242,-18.946 -10.7891,-23.992 -5.0234,0 -13.0117,-34.336 -12.0039,-42.004 -5.7148,1.554 -5.4023,-23.555 -7.625,-29.766 -0.6562,-1.816 0.1641,-17.031 -1.9726,-18.23 -3.6915,5.203 -1.9844,16.296 -6.0079,19.199 1.6211,-0.332 3.2227,-0.735 4.8047,-1.203 0,5.683 -7.1875,7.558 0.3711,10.019 4.0313,1.32 -3.4453,7.227 -2.7734,9.18 4.543,-0.586 4.3359,18.73 3.6055,22.805 2.539,-2.18 10.1523,19.257 3.5898,21.589 0.3047,2.18 7.5508,3.45 4.2031,5.793 -1.9336,0.508 -2.5429,1.778 -1.7969,3.809 1.4532,-0.234 2.8594,-0.625 4.2266,-1.164 3.8984,0.988 -4.2109,5.879 -4.2266,5.969 11.8633,2.898 2.0977,29.148 8.836,29.304 3.039,0.508 1.0859,-6.062 5.5664,-4.109 -0.625,2.91 -3.2539,6.141 -5.8477,8.633 C 13.1133,693.578 0,630.992 0,565.309 0,297.289 217.266,80.0156 485.313,80.0156 c 81.894,0 159.003,20.3794 226.679,56.1994 -0.168,1.328 -0.254,2.461 0.028,2.617 4.335,2.129 6.898,2.422 8.136,1.797 11.692,6.465 23.098,13.391 34.168,20.781 -0.828,1.36 -0.73,1.524 1.399,2.688 1.257,-0.559 2.761,-0.41 3.132,1.062 -0.25,0.059 -0.371,0.274 -0.542,0.403 0.625,0.371 0.464,1.492 0.425,1.238 l 3.879,-0.703 c -0.012,1.191 0.969,1.418 1.199,2.402 -0.125,0.059 -0.437,0.227 -0.718,0.391 0.64,0.586 1.211,1.191 1.582,1.816 -0.84,-0.449 -5.547,-0.293 -5.664,-2.207 0.281,-0.078 0.418,-0.293 0.601,-0.477 -0.762,-0.402 -2.371,-0.625 -4.472,-1.378 -0.36,-0.879 -1.239,-0.762 -0.782,-1.387 C 718.508,146.254 679.082,125.219 640.613,113.98 601.516,102.555 557.566,95.1406 515.77,90.707 c -0.028,0.9766 -0.782,2.7539 -1.551,3.3789 -4.16,0.3047 -17.91,-5.957 -21.602,1.211 129.324,4.414 260.41,57.9301 345.735,157.2191 1.062,0.789 17.324,20.379 29.293,38.379 -3.043,-0.149 -4.649,-1.75 -4.598,-4.707" />
        <path
           inkscape:connector-curvature="0"
           id="path3417"
           style="fill:#757272;fill-opacity:1;fill-rule:nonzero;stroke:none"
           d="m 680.105,47.0938 c 0.364,2.7148 1.86,4.414 4.497,5.0898 -0.356,-2.707 -1.86,-4.3867 -4.497,-5.0898 z m 52.59,19.9218 c -2.976,-3.1054 -7.871,-0.5078 -12.707,-4.2461 -2.461,-1.875 -5,-4.375 -8.062,-5.2539 -1.914,1.3946 -3.977,2.461 -6.211,3.211 0.269,-3.6328 -4.067,-9.5118 -3.93,-6.1328 0.07,1.7382 4.172,8.2031 -2.222,5.5859 -3.508,-1.4531 -2.454,-6.3281 -4.708,-8.7891 -1.957,-2.1289 -6.789,0.7539 -6.808,3.418 5.898,0.7031 10.41,3.8398 10.168,10.2734 -4.277,1.4258 0.918,-5.8984 -6.672,-2.8984 -1.348,0.5469 -7.305,-2.3359 -8.898,-3.1641 -4.969,-2.5703 -0.602,-1.125 -5.68,-0.0898 0.066,-4.1016 -2.942,-5.918 -5.09,-3.2031 -0.742,0.9179 -6.199,-3.5938 -8.352,-3.875 -9.136,-1.125 -17.918,-5.2266 -27.793,-6.7305 -19.136,-2.9375 -37.222,-9.8633 -56.726,-12.9102 -37.168,-5.8007 -73.555,-7.6562 -111.16,-6.9414 -21.758,0.4375 -44.629,1.5821 -66.133,4.9102 -12.68,1.9258 -25.234,4.6094 -37.758,7.3633 -9.324,2.0508 -19.883,2.2461 -28.887,5.039 -1.582,1.211 -3.211,2.3828 -4.863,3.5157 -1.64,-0.2735 -3.223,-0.7032 -4.773,-1.2891 -0.633,0.0781 -6.27,1.8867 -7.239,2.2656 -0.027,0.8008 -0.039,1.5742 -0.054,2.3828 -2.883,0.7735 -5.801,1.3672 -8.75,1.7578 -4.336,0.6641 -8.782,1.1836 -12.942,2.6563 -0.007,0.8008 -0.031,1.5742 -0.039,2.3828 -1.902,0.8516 -3.906,1.3281 -5.984,1.4453 -2.805,0.293 -7.539,4.0235 -9.719,3.086 -5.09,-2.1875 -15.144,4.2578 -20.515,6.7968 2.019,-3.3867 3.242,-6.25 -2.29,-6.0351 4.797,2.3047 -1.746,5.7812 -4.863,3.4961 -0.008,1.3476 5.793,6.2109 -0.047,5.1367 -1.75,-0.3125 -1.25,-2.8125 -1.836,-4.0625 -2.566,-5.5156 -12.004,6.1719 -16.816,1.6133 -0.422,1.289 6.34,6.4531 -0.066,5.1172 -4.961,-1.0469 -5.207,-3.5079 -11.309,-0.2071 -5.246,2.8321 -10.512,7.6563 -16.906,7.1875 0.273,5.4805 -4.992,6.4258 -9.325,6.4258 1.883,-4.3359 8.473,-4.0312 9.051,-9.1094 0.469,-0.3047 0.938,-0.625 1.407,-0.9179 9.089,0.0273 6.621,-3.3907 10.664,-6.9844 2.109,-1.3281 4.296,-2.5469 6.425,-3.8477 1.453,-0.4297 2.852,-0.4687 3.946,0.5782 1.777,1.707 1.953,-2.2579 4.504,-5.5977 1.503,-0.8594 2.957,-1.7969 4.461,-2.6562 1.417,0.4609 2.343,2.1796 4.902,-0.1368 1.262,-1.3164 2.961,-3.3867 4.629,-5.1172 20.769,-11.3281 44.035,-18.5546 66.867,-25.8203 1.504,1.5821 0.934,3.75 4.93,1.5821 4.023,-2.2071 15.949,-7.168 34.406,-12.4805 C 395.41,5.55078 439.719,0 485.332,0 c 76.856,0 150.977,13.832 216.492,44.5352 4.016,3.6445 8.703,7.0117 16.164,7.9804 3.977,2.0391 8.008,3.9649 11.946,6.0821 2.379,1.8164 5.164,3.2148 7.371,4.8242 5.898,4.2969 -0.325,8.0469 -4.61,3.5937" />
        <path
           inkscape:connector-curvature="0"
           id="path3431"
           style="fill:url(#linearGradient3419);fill-opacity:1;fill-rule:evenodd;stroke:none"
           d="m 671.086,263.395 c -1.809,-1.797 -5.063,-2.141 -6.008,-4.797 -1.387,-0.203 -2.129,0.273 -2.39,1.211 -4.602,-0.457 -6.45,-8.114 -9.602,-10.801 -4.648,-3.965 -11.16,-4.324 -19.199,-7.207 -1.043,-0.371 -1.035,-1.199 -1.199,-2.41 -4.805,0 -9.602,0 -14.407,0 -3.789,-9.797 -21.14,-6.047 -23.996,-16.789 -7.351,1.445 -20.594,-2.997 -24.004,2.402 8.137,0.371 12.364,0.559 15.598,3.594 -4.961,3.437 -18.438,-1.641 -19.199,6.007 2.8,0 5.605,0 8.398,0 -2.265,5.321 -14.199,0.997 -20.398,2.391 -1.719,-5.703 8.925,0.938 7.207,-4.785 -7.344,-1.133 -9.653,0.098 -18,0 -1.438,7.539 -9.004,5.41 -14.407,7.18 -0.156,0.066 0.137,2.41 0,2.41 -7.82,0.781 -11.953,-0.996 -14.39,5.996 -1.574,4.492 -7.231,6.699 -9.61,10.801 -6.957,-1.836 -11.25,-6.348 -9.589,-16.797 -10.024,-1.211 -8.164,9.453 -19.211,7.207 -2.383,5.762 -9.715,6.594 -14.407,9.59 -1.414,0.918 -1.953,4.211 -3.589,4.797 -3.743,1.355 -6.829,4.304 -10.801,7.207 -2.817,2.058 -9.57,1.394 -7.199,7.195 7.644,-1.543 10.019,-8.379 20.402,-7.195 -3.637,3.972 -6.242,8.972 -13.203,9.597 -2.063,8.996 -6.938,17.344 -11.992,19.192 -1.036,3.836 1.035,4.578 2.39,6.023 -6.203,2.188 -16.25,0.547 -21.601,3.594 1.679,6.875 -5.645,4.746 -4.793,10.801 -0.371,1.621 -3.008,0.996 -4.809,1.191 1.098,16.289 -8.515,21.895 -11.988,33.605 -3.891,1.493 -0.918,-3.878 -4.809,-2.394 -9.605,11.594 -20.972,21.426 -20.398,43.203 -5.867,8.106 -6.809,20.606 -8.399,30 4.102,0.481 3.606,-3.601 5.996,-4.812 2.61,1.043 -3.796,12.859 3.606,12 2.105,-3.086 -1.25,-5.762 3.594,-7.188 -1.914,-4.109 -3.262,-8.73 -4.797,-13.203 4.773,-0.781 3.437,4.551 3.601,8.391 4.36,-0.879 4.707,-6.477 3.594,-9.602 8.574,-7.832 14.211,-18.602 24.008,-25.195 -4.328,6.074 -7.656,13.144 -14.406,16.797 -0.723,2.48 1.941,8.332 -2.395,7.207 4.61,6.418 -2.644,12.851 1.195,21.601 -4.027,1.231 -1.867,-3.73 -2.406,-5.996 -5.418,0.957 -3.301,9.484 -7.183,11.984 3.101,0.625 4.453,0.536 8.394,2.411 0.578,3.769 -3.687,2.707 -2.398,7.187 -1.653,0.274 -4.946,0.996 -7.207,3.606 0.078,10.457 2.5,26.238 -3.594,32.39 5.176,8.012 -2.043,13.528 1.187,22.809 1.645,-0.371 0.997,-3.008 1.211,-4.805 3.379,4.805 -0.839,24.883 2.407,38.399 4.019,1.23 1.851,-3.731 2.39,-5.997 7.239,2.579 3.465,14.782 9.602,15.602 0,-1.988 0,-4 0,-5.992 2.555,-0.567 2.285,1.699 2.398,3.594 4.59,0.195 3.899,-4.903 5.996,-7.207 2.5,2.597 4.094,0.078 4.809,-2.403 1.504,2.891 2.422,6.387 4.805,8.418 4.004,-2.148 0.093,-5.254 1.187,-10.801 8.266,16.422 8.481,34.176 22.805,47.993 2.707,-0.899 0.469,-6.739 1.203,-9.598 7.105,4.09 6.863,15.535 15.594,17.996 0.769,-18.289 -17.571,-33.289 -14.407,-56.391 0.665,4.141 2.422,8.204 3.618,11.993 5.078,16.312 8.98,34.007 19.199,36 -13.457,-26.903 -23.352,-49.497 -21.606,-81.606 2.571,-2.617 3.735,-6.672 7.2,-8.41 -0.782,-2.051 -2.762,-0.762 -2.403,1.191 -1.863,-1.734 -4.676,-2.519 -7.195,-3.593 9.043,-3.442 7.644,-13.293 11.988,-19.184 2.832,-0.027 3.535,2.063 7.207,1.211 0.571,-2.566 -1.718,-2.285 -3.601,-2.402 7.265,-2.188 13.41,-9.754 22.8,-8.399 -0.332,-1.933 1.133,-2.07 1.204,-3.613 10.593,6.262 17.546,-9.473 12.004,-15.586 -2.5,0.344 1.777,3.234 -2.407,3.594 -4.453,-4.5 2.91,-8.25 5.996,-12 0.598,-0.715 -0.574,-2.871 0,-3.606 6.243,-7.89 14.575,-13.515 25.207,-11.992 3.606,1.184 5.352,4.231 10.801,3.594 -0.515,-8.113 3.098,-12.09 10.801,-11.992 2.07,5.527 11.75,3.457 11.992,10.793 -7.961,3.914 5.488,11.238 4.805,19.207 7.472,1.328 7.637,9.961 14.402,11.992 L 671.086,263.395" />
        <path
           inkscape:connector-curvature="0"
           id="path3433"
           style="fill:#38aec2;fill-opacity:1;fill-rule:nonzero;stroke:none"
           d="m 862.07,707.672 c -36.086,87.461 -102.492,153.094 -176.257,198.816 -3.938,2.442 -9.602,2.168 -11.997,7.2 18.711,-4.883 31.836,-15.364 48,-22.793 -0.339,0.39 -0.781,0.73 -1.14,1.121 -8.75,6.308 -17.696,12.355 -26.953,17.961 -35.051,18.886 -78.188,34.636 -121.907,43.308 -14.531,2.883 -29.648,2.656 -44.406,7.207 1.801,0.207 7.883,2.403 8.254,4.024 -40.32,4.425 -86.719,1.386 -116.973,-6.903 -1.855,-0.519 -4.582,-1.554 -6.472,-1.925 -4.406,-0.868 -9.477,-3.887 -14.406,-4.793 -8.934,-1.661 -17.872,-5.508 -23.997,-7.207 -9.058,-2.5 -19.351,-7.258 -25.203,-9.602 -7.82,-3.125 -16.972,-7.742 -21.601,-9.598 -3.887,-1.554 -4.278,-1.992 -7.199,-3.593 -1.649,-0.911 -3.993,-1.36 -5.997,-2.403 -20.894,-10.851 -39.586,-24.601 -56.406,-37.199 -17.183,-12.879 -42.82,-35.711 -51.597,-49.207 -3.313,-5.078 -9.668,-8.828 -9.602,-15.598 -5.281,-3.113 -9.316,-7.48 -10.801,-14.402 13.406,8.594 20,24.004 34.805,31.199 -8.438,-10.594 -24.531,-32.363 -24.531,-32.363 0,0 -41.907,-70.125 -53.465,-112.5 -1.543,-4.871 -3.672,-10.567 -4.477,-14.598 -15.406,-77.91 -10,-93.75 -10,-93.75 0,0 -0.406,21.348 6.469,54.598 -0.734,1.594 -1.289,3.137 -1.203,4.406 0.09,1.199 1.621,3.281 2.273,4.277 0.246,-0.382 0.364,-0.753 0.578,-1.132 1.836,8.047 4.102,16.668 6.868,25.8 -0.11,0.391 -0.254,0.782 -0.344,1.172 -0.695,3.008 0.754,6.473 -0.598,9.207 1.098,-1.14 2.016,-2.547 2.949,-3.906 3.84,11.906 8.496,24.512 14.258,37.668 5.063,11.531 10.117,22.762 14.309,30.996 36.191,63.906 87.273,117.625 152.512,148.926 12.996,6.238 27.488,11.484 42,13.203 -22.481,-16.711 -52.129,-26.269 -70.801,-46.797 -4.051,-1.582 -11.223,-6.34 -10.801,-8.398 6.379,7.586 18.027,4.121 26.406,10.801 -0.168,-2.961 -0.183,-5.793 1.199,-7.207 -4.39,0.789 -4.605,-2.598 -8.406,-2.403 0.059,-3.652 -2.527,-4.66 -3.594,-7.199 -3.586,-0.02 -4.082,-3.113 -7.207,-3.594 -9.382,-12.168 -21.914,-19.883 -32.39,-31.199 -18.196,-19.668 -37.406,-42.871 -50.403,-66.008 -5.437,-9.676 -13.711,-22.187 -16.804,-32.39 9.304,-1.829 7.105,13.308 16.804,7.195 0.743,3.254 -1.523,9.523 1.204,10.801 0.183,-1.414 -0.215,-3.407 1.191,-3.602 1.894,0.918 1.797,3.809 4.805,3.602 0.386,12.804 9.285,17.109 16.797,22.793 2.722,4.55 -0.032,10.343 8.398,10.8 l 0,-7.195 c 8.602,-0.598 7.613,8.387 12,12 3.066,-2.383 5.519,1.242 7.207,-1.199 -4.758,-2.852 -3.008,-12.199 -10.801,-12.004 l 0,-7.195 c -2.89,-1.914 -3.972,-5.625 -7.207,-7.2 0.098,-7.703 -8.039,-17.546 -11.992,-25.203 l 0,-8.398 c -3.801,-4.211 -5.105,-10.899 -8.406,-15.598 5.301,-8.867 -2.199,-15.789 -1.196,-22.801 6.836,4.989 7.844,0.411 14.399,3.594 2.246,-1.75 1.414,-6.582 5.996,-5.996 1.148,2.234 -3.598,4.012 0,4.805 2.391,-0.02 1.531,-3.281 4.805,-2.403 -0.227,6.434 5.984,7.059 9.597,3.594 0.34,3.106 1.211,9.285 4.805,7.207 -0.117,-1.894 -3.066,-0.937 -2.402,-3.605 2.8,0.402 4.953,1.445 7.199,2.402 -4.992,5.625 5.242,10.481 10.801,9.602 8.418,12.382 23.472,18.125 32.398,30 9.797,3.418 20.156,12.625 28.801,13.203 -2.988,-8.223 -10.156,-12.246 -10.801,-22.805 4.797,-3.086 9.563,1.047 14.402,-1.199 -0.211,-3.547 -3.23,-7.434 -1.199,-9.602 16.531,8.457 38.281,28.711 65.996,33.606 1.36,-1.856 3.45,-2.961 4.805,-4.805 13.848,-3.371 22.5,2.293 33.594,4.805 2.668,0.594 5.801,-0.449 8.398,0 6.145,1.035 12.129,4.207 18.008,4.793 30.242,3.027 62.402,-0.918 81.594,-9.598 6.836,1.883 12.129,-2.551 18.008,-3.605 9.519,-1.7 20.183,0.254 27.593,-1.192 14.25,-2.793 22.231,-15.703 35.996,-18.008 -1.66,12.746 -9.531,19.27 -11.992,31.204 1.653,-0.051 2.629,0.566 3.598,1.199 20.371,-7.078 42.605,-23.321 60,-42 1.441,-1.543 0.973,-4.414 2.398,-5.996 2.004,-2.227 5.11,-3.84 7.2,-5.996 7.175,-7.442 13.691,-12.961 19.199,-21.602 7.019,-11.027 13.32,-27.336 16.804,-40.801 2.344,-9.082 4.653,-19.844 4.797,-30 0.11,-7.297 -0.793,-18.117 -5.996,-22.804 -2.082,1.914 -2.597,5.402 -2.402,9.601 -6.094,5.508 -4.336,18.867 -10.801,24.004 -0.156,-12.492 1.238,-19.387 2.402,-28.801 1.004,-8.23 4.485,-13.679 7.2,-21.601 0.562,-1.668 -0.586,-4.34 0,-6 0.886,-2.539 4.168,-5.684 4.8,-8.399 1.68,-7.246 2.434,-12.012 7.2,-15.605 2.089,3.261 0.468,5.429 0,9.609 1.652,0.567 7.109,0.938 4.797,3.594 -0.208,-0.899 -3.618,5.098 -6,5.996 2.238,0.176 4.015,0.801 4.804,2.402 -1.426,0.586 -2.722,1.289 -3.601,2.403 1.672,2.734 4.152,4.644 5.996,7.203 3.203,0 2.605,-3.805 6.008,-3.61 1.113,4.723 -4.18,3.032 -2.407,8.403 2.629,-2.567 6.66,-3.731 8.403,-7.196 -1.125,0.731 -4.426,2.793 -3.606,-1.207 0.02,-2.382 3.281,-1.523 2.403,-4.804 5.539,-0.254 -1.915,5.64 4.804,4.804 -3.301,-7.89 15.676,-9.257 8.399,-16.796 2.136,-1.856 4.699,-3.301 7.199,-4.805 -2.727,-2.676 4.051,-4.942 -1.203,-7.188 7.218,-7.636 4.519,-19.238 12.004,-27.629 0.691,-3.207 -3.547,-7.464 0,-9.574 0.269,0.938 0.027,2.356 1.199,2.403 -0.879,-21.68 -7.188,-37.969 -3.606,-60 0.371,-2.774 -3.464,-1.336 -3.589,-3.594 6.953,-1.934 9.414,16.797 19.199,11.992 -1.953,-6.063 -4.699,-11.316 -7.207,-16.797 3.062,-1.289 4.207,5.149 6.004,1.184 -0.246,-8.496 -5.364,-8.664 -7.2,-13.203 0.989,-5.93 4.204,2.793 5.997,-1.184 -2.379,-2.246 -4.208,-9.316 -7.196,-7.207 3.778,-6.531 -7.351,-4.609 -6.433,-11.816 3.191,-2.422 4.902,-6.297 7.195,-9.61 -2.625,-11.23 -5.274,-15.449 -7.195,-26.394 -1.664,1.757 -5.704,0.625 -4.797,-3.606 4.531,-1.726 2.297,3.301 5.996,2.395 -2.91,-7.207 -7.156,-18 -9.602,-23.977 0.024,1.563 3.332,1.524 3.606,0 -4.551,-2.273 -3.203,-10.41 -9.602,-10.808 -3.355,-13.79 -20.008,-19.524 -19.195,-33.606 -3.672,0.879 -3.535,-2.07 -7.207,-1.191 -0.266,-2.266 1.355,-2.664 1.199,-4.805 -9.707,-6.688 -18.113,-14.695 -26.394,-22.793 -5.852,-1.355 -7.778,-8.523 -13,-12.383 -4.754,-3.535 -14.786,-5.554 -13.04,-12.519 115.239,71.672 193.899,199.57 193.899,342.336 0,50.136 -9.238,98.093 -25.977,142.363" />
        <path
           inkscape:connector-curvature="0"
           id="path3435"
           style="fill:#757272;fill-opacity:1;fill-rule:nonzero;stroke:none"
           d="m 1107.2,708.316 181.62,0 16.49,58.516 -8.58,0 c -9.89,-20.273 -20.12,-32.883 -30.67,-37.805 -10.55,-4.929 -30.83,-7.39 -60.86,-7.39 -7.7,0 -12.95,0.058 -15.74,0.164 -2.8,0.097 -5.47,0.332 -8,0.656 -4.3,0.547 -7.07,1.883 -8.33,4.031 -1.27,2.121 -1.89,5.071 -1.89,8.801 l 0,161.856 c 0,11.25 2.1,18.582 6.35,22 4.24,3.418 12.58,5.449 25.02,6.125 l 0,6.277 -95.41,0 0,-6.277 c 12.5,-0.879 20.56,-3.176 24.18,-6.856 3.62,-3.684 5.44,-11.535 5.44,-23.527 l 0,-149.903 c 0,-12.703 -1.84,-20.613 -5.52,-23.73 -3.67,-3.125 -11.72,-5.34 -24.1,-6.649 l 0,-6.289 z m 299.29,38.926 c 0,-6.269 -3.32,-11.426 -10,-15.5 -6.67,-4.062 -13.65,-6.094 -20.93,-6.094 -5.3,0 -10.09,1.543 -14.38,4.622 -6.62,4.714 -9.93,12.078 -9.93,22.078 0,12.414 7.94,23.496 23.82,33.281 8.27,5.059 18.73,9.668 31.42,13.848 l 0,-52.235 z m -84.61,-6.183 c 0,-10.223 3.47,-18.641 10.41,-25.282 6.94,-6.652 15.15,-9.961 24.62,-9.961 9.04,0 18.56,2.95 28.6,8.856 5.95,3.508 13.11,8.879 21.49,16.094 0.32,-6.68 2.17,-12.422 5.52,-17.235 3.35,-4.824 8.78,-7.218 16.25,-7.218 6.39,0 12.66,2.05 18.82,6.164 4.07,2.703 7.85,6.179 11.39,10.39 l 0,8.719 c -4.07,-3.047 -6.95,-4.969 -8.59,-5.762 -1.66,-0.789 -3.75,-1.179 -6.29,-1.179 -4.52,0 -7.48,2.195 -8.91,6.609 -0.9,2.422 -1.33,6.816 -1.33,13.195 l 0,66.133 c 0,14.5 -2.04,25.555 -6.1,33.133 -7.62,13.848 -22.09,20.793 -43.45,20.793 -18.39,0 -32.33,-4.219 -41.86,-12.637 -9.54,-8.418 -14.29,-16.465 -14.29,-24.172 0,-3.965 1.31,-7.558 3.94,-10.801 2.64,-3.25 6.42,-4.871 11.36,-4.871 3.19,0 5.94,0.711 8.24,2.137 4.05,2.422 6.08,6.711 6.08,12.863 0,0.879 -0.29,2.891 -0.87,6.016 -0.6,3.133 -0.88,5.352 -0.88,6.687 0,5.157 2.55,9.239 7.63,12.2 5.09,2.859 10.47,4.285 16.1,4.285 11.84,0 19.66,-3.692 23.43,-11.043 2.21,-4.395 3.3,-12.188 3.3,-23.41 l 0,-14.004 c -30.29,-11.309 -50.5,-20.274 -60.65,-26.856 -15.97,-10.632 -23.96,-23.925 -23.96,-39.843 m 146.88,-32.743 72.07,0 0,4.532 c -7.55,0.215 -13.09,1.679 -16.6,4.375 -3.5,2.703 -5.25,8.015 -5.25,15.965 l 0,92.785 c 5.9,5.84 10.72,10.047 14.44,12.586 6.66,4.406 13.24,6.613 19.7,6.613 9.4,0 15.87,-3.125 19.37,-9.367 3.49,-6.239 5.26,-14.102 5.26,-23.602 l 0,-70.734 c 0,-11.258 -1.62,-18.563 -4.81,-21.934 -3.18,-3.359 -8.79,-5.594 -16.79,-6.687 l 0,-4.532 70.29,0 0,4.532 c -7.4,0.097 -12.69,1.922 -15.85,5.437 -3.16,3.516 -4.75,9.238 -4.75,17.168 l 0,77.258 c 0,21.523 -5.92,36.453 -17.78,44.832 -6.15,4.289 -12.97,6.457 -20.42,6.457 -9.24,0 -18.12,-2.676 -26.69,-8.047 -5.72,-3.508 -13.63,-9.973 -23.73,-19.387 l 0,23.887 c 0,0.957 -0.09,1.711 -0.26,2.246 -0.16,0.539 -0.64,0.793 -1.39,0.793 l -15.53,-5.097 c -16.84,-5.5 -27.52,-8.899 -32.04,-10.207 l 0,-5.77 c 1.55,0.203 2.84,0.371 3.89,0.477 1.05,0.117 2.07,0.175 3.08,0.175 6.49,0 10.8,-2.078 12.89,-6.238 1.32,-2.852 1.99,-7.766 1.99,-14.766 l 0,-84.113 c 0,-10 -1.55,-16.445 -4.7,-19.316 -3.12,-2.891 -8.6,-4.813 -16.39,-5.789 l 0,-4.532 z M 1711.41,864 c -20.13,0 -37.14,-8.535 -51.05,-25.605 -13.92,-17.063 -20.86,-37.5 -20.86,-61.309 0,-18.984 5.8,-35.695 17.4,-50.137 11.59,-14.426 26.75,-21.633 45.44,-21.633 10.56,0 19.84,2.473 27.87,7.414 4.51,2.86 9.84,7.645 16.01,14.356 l 0,-20.285 1.15,-1.485 25.77,9.649 c 15.19,5.234 23.13,7.961 23.79,8.176 l 0,5.527 c -1.21,-0.227 -2.41,-0.363 -3.6,-0.422 -1.23,-0.058 -2.43,-0.078 -3.64,-0.078 -7.56,0 -12.22,1.418 -13.98,4.238 -1.76,2.824 -2.63,7.774 -2.63,14.836 l 0.35,134.637 c 0,6.484 0.07,13.047 0.19,19.687 0.13,6.661 0.24,13.106 0.36,19.368 l 0.36,17.304 -1,0.34 c -4.05,-1.543 -6.96,-2.586 -8.72,-3.133 -3.71,-1.32 -8.04,-2.695 -12.98,-4.113 -4.93,-1.426 -9.86,-2.793 -14.79,-4.109 l -13.49,-3.457 0,-5.528 c 3.39,0.332 5.59,0.547 6.58,0.664 0.98,0.106 2.13,0.157 3.46,0.157 5.57,0 9.11,-1.27 10.6,-3.789 1.46,-2.532 2.22,-7.149 2.22,-13.86 l 0,-52.137 c -4.08,4.032 -8.3,7.215 -12.71,9.493 -6.7,3.484 -14.08,5.234 -22.1,5.234 m 6.14,-140.859 c -16.25,0 -28.47,6.914 -36.66,20.742 -8.18,13.828 -12.26,29.59 -12.26,47.265 0,17.891 3.84,32.957 11.52,45.204 7.7,12.238 18.45,18.359 32.3,18.359 7.25,0 14.67,-2.938 22.31,-8.809 7.63,-5.867 11.46,-15.945 11.46,-30.222 l 0,-70.645 c 0,-4.504 -2.64,-9.277 -7.91,-14.328 -5.27,-5.047 -12.19,-7.566 -20.76,-7.566 m 241.66,125.156 c -4.08,8.574 -7.39,16.894 -9.93,24.969 -2.53,8.078 -3.82,15.566 -3.82,22.492 0,8.906 2.3,16.055 6.86,21.426 4.56,5.39 11.01,8.086 19.36,8.086 7.7,0 14.02,-2.637 19.04,-7.922 4.99,-5.274 7.49,-12.188 7.49,-20.762 0,-11.426 -4.89,-21.863 -14.7,-31.309 -5.43,-5.281 -13.53,-10.937 -24.3,-16.98 M 1939.6,721.879 c -12.84,0 -23.35,4.57 -31.55,13.703 -8.19,9.129 -12.29,19.922 -12.29,32.391 0,13.554 4.65,25.48 13.96,35.754 6.09,6.679 14.84,13.339 26.25,20.019 12.39,-22.422 21.5,-38.137 27.3,-47.141 5.81,-9.003 13.93,-20.105 24.33,-33.281 -8.08,-7.422 -16.56,-12.84 -25.41,-16.277 -8.86,-3.449 -16.38,-5.168 -22.59,-5.168 m -21.65,106.164 c -16.92,-9.531 -30.07,-20.07 -39.48,-31.641 -9.41,-11.543 -14.1,-24.941 -14.1,-40.168 0,-16.218 5.27,-29.011 15.8,-38.379 10.53,-9.363 24.63,-14.05 42.28,-14.05 15.88,0 30.44,3.25 43.67,9.765 10.14,4.774 20.18,11.668 30.1,20.684 10.51,-9.992 18.94,-16.953 25.25,-20.899 10.52,-6.71 21.15,-10.058 31.89,-10.058 4.32,0 8.74,0.672 13.29,1.98 7.63,2.09 14.33,5.657 20.08,10.696 3.67,3.191 7.48,7.605 11.46,13.261 3.98,5.653 6.31,9.793 6.99,12.442 l -5.03,3.945 c -5.2,-6.262 -9.35,-10.488 -12.44,-12.687 -5.1,-3.516 -11.31,-5.274 -18.59,-5.274 -12.3,0 -24.57,5.215 -36.87,15.664 -5.63,5.274 -10.67,10.489 -15.09,15.656 8.28,10.43 14.51,18.622 18.67,24.571 4.15,5.945 9.33,14.512 15.52,25.73 l 8.64,15.664 c 4.18,7.707 9.29,13.039 15.27,16.028 3.65,1.757 9.19,3.066 16.61,3.953 l 0,7.023 -73.22,0 0,-7.023 c 7.07,-0.555 12.03,-1.551 14.87,-2.977 4.53,-2.316 6.77,-6.543 6.77,-12.715 0,-6.046 -2.24,-14.132 -6.77,-24.257 -4.48,-10.118 -12.62,-22.325 -24.35,-36.594 -10.94,14.16 -18.73,24.875 -23.32,32.121 -4.59,7.246 -11.77,19.668 -21.49,37.254 12.63,5.597 24.44,13.008 35.42,22.246 11.02,9.219 16.49,21.086 16.49,35.605 0,12.414 -4.32,22.297 -12.99,29.661 -8.67,7.363 -19.73,11.043 -33.25,11.043 -14.8,0 -27.04,-5.223 -36.69,-15.653 -9.65,-10.441 -14.47,-23.574 -14.47,-39.394 0,-3.399 0.27,-6.907 0.81,-10.469 0.56,-3.574 1.29,-7.121 2.17,-10.625 0.77,-3.184 2.1,-7.375 3.99,-12.539 1.88,-5.156 3.54,-9.231 4.97,-12.188 l -12.86,-7.402" />
        <path
           inkscape:connector-curvature="0"
           id="path3437"
           style="fill:#757272;fill-opacity:1;fill-rule:nonzero;stroke:none"
           d="m 1249.32,532.715 c 0,-22.11 -8.06,-37.192 -24.15,-45.27 -8.87,-4.394 -21,-6.601 -36.44,-6.601 -1.76,0 -3.58,0.078 -5.42,0.215 -1.86,0.129 -5.81,0.566 -11.83,1.289 l 0,88.195 c 0,4.734 0.8,7.793 2.37,9.168 1.59,1.379 5.84,2.051 12.74,2.051 14.56,0 26.61,-2.071 36.13,-6.278 17.73,-7.746 26.6,-22.004 26.6,-42.769 m -140.37,-161.86 94.93,0 0,6.29 c -13.69,0.984 -22.52,3.113 -26.47,6.394 -3.95,3.301 -5.93,11.289 -5.93,23.965 l 0,61.035 c 2.73,0 6.92,-0.144 12.57,-0.371 5.62,-0.254 10.25,-0.371 13.87,-0.371 25.19,0 46.17,5.148 62.93,15.527 16.76,10.336 25.12,27.047 25.12,50.094 0,18.18 -7.56,32.836 -22.69,43.949 -15.14,11.145 -36.97,16.711 -65.47,16.711 l -88.86,0 0,-6.289 c 12.09,-0.976 19.93,-3.351 23.52,-7.082 3.56,-3.75 5.34,-11.512 5.34,-23.281 l 0,-146.133 c 0,-13.828 -1.58,-22.695 -4.78,-26.57 -3.19,-3.84 -11.22,-6.379 -24.08,-7.578 l 0,-6.29 z m 190.42,0 81.36,0 0,5.536 c -10.27,-0.243 -17.59,1.504 -22.01,5.195 -4.41,3.644 -6.61,10.227 -6.61,19.668 l 0,74.191 c 0,6.571 2.8,12.95 8.42,19.133 5.61,6.242 10.32,9.348 14.19,9.348 2.41,0 5.73,-1.914 9.97,-5.762 4.24,-3.879 8.46,-5.793 12.67,-5.793 4.07,0 7.47,1.524 10.19,4.617 2.71,3.09 4.07,6.879 4.07,11.391 0,5.059 -1.78,9.277 -5.32,12.617 -3.53,3.359 -8.11,5.039 -13.75,5.039 -7.07,0 -13.89,-2.754 -20.48,-8.242 -6.58,-5.508 -13.39,-13.125 -20.45,-22.926 l 0,27.067 c 0,1.875 -0.1,3.125 -0.26,3.711 -0.16,0.585 -0.63,0.898 -1.4,0.898 -5.78,-2.637 -11.4,-5.02 -16.85,-7.109 -2.52,-0.996 -7.04,-2.657 -13.59,-4.961 -6.55,-2.325 -12.91,-4.571 -19.13,-6.758 l 0,-5.527 c 1.96,0.429 3.83,0.8 5.64,1.074 1.81,0.273 3.26,0.41 4.36,0.41 5.36,0 9.04,-2.363 11.06,-7.035 2.03,-4.676 3.04,-12.453 3.04,-23.332 l 0,-74.325 c 0,-8.781 -1.66,-14.55 -4.95,-17.238 -3.3,-2.695 -10.02,-4.472 -20.17,-5.351 l 0,-5.536 z m 119.42,76.415 c 0,-23.34 7.3,-42.754 21.91,-58.223 14.6,-15.469 32.45,-23.203 53.52,-23.203 21.97,0 39.88,8.066 53.7,24.199 13.84,16.105 20.75,35.078 20.75,56.914 0,23.711 -7.13,42.66 -21.4,56.93 -14.29,14.258 -32.29,21.386 -54.02,21.386 -21.86,0 -39.74,-7.539 -53.64,-22.617 -13.88,-15.113 -20.82,-33.531 -20.82,-55.386 m 69.75,68.218 c 16.05,0 28.33,-8.398 36.81,-25.226 8.46,-16.789 12.71,-34.699 12.71,-53.676 0,-18.34 -3.34,-33.164 -10,-44.481 -6.66,-11.339 -16.15,-16.984 -28.47,-16.984 -15.73,0 -28.03,8.457 -36.89,25.391 -8.86,16.914 -13.29,35.129 -13.29,54.687 0,24.485 5.51,41.711 16.52,51.715 6.37,5.723 13.92,8.574 22.61,8.574 m 140.54,-114.136 0,82.656 c 0,4.789 3.38,9.691 10.09,14.722 6.73,4.981 14.17,7.461 22.35,7.461 11.55,0 21.75,-4.98 30.49,-14.972 8.78,-9.953 13.15,-25.004 13.15,-45.18 0,-21.035 -4.22,-37.441 -12.65,-49.238 -8.43,-11.758 -18.61,-17.656 -30.51,-17.656 -7.73,0 -14.41,1.828 -20.1,5.5 -5.66,3.679 -9.94,9.246 -12.82,16.707 m -51.97,-104.043 81.11,0 0,5.754 c -12.19,0.886 -20.1,2.605 -23.69,5.117 -3.64,2.547 -5.45,9.363 -5.45,20.496 l 0,54.094 c 5.95,-6.106 12.45,-10.332 19.51,-12.629 4.52,-1.524 9.86,-2.293 16.02,-2.293 19.95,0 36.52,8.953 49.67,26.824 13.18,17.844 19.76,37.754 19.76,59.668 0,22.355 -5.48,39.965 -16.45,52.867 -10.95,12.891 -24.04,19.336 -39.26,19.336 -10.45,0 -20.66,-3.105 -30.57,-9.258 -5.51,-3.535 -11.9,-8.906 -19.18,-16.191 l 0,22.441 c 0,0.684 -0.14,1.25 -0.4,1.738 -0.27,0.508 -0.68,0.762 -1.23,0.762 -21.32,-7.519 -32.28,-11.328 -32.81,-11.445 l -15.51,-5.117 0,-5.528 c 1.96,0.313 3.45,0.528 4.52,0.645 1.02,0.117 2.15,0.176 3.35,0.176 5.59,0 9.4,-1.172 11.42,-3.516 2.03,-2.324 3.04,-7.664 3.04,-15.902 l 0,-158.43 c 0,-7.969 -1.39,-13.828 -4.2,-17.539 -2.78,-3.711 -9.33,-5.906 -19.65,-6.57 l 0,-5.5 z m 251.3,227.964 c -21.01,0 -38.07,-8.007 -51.17,-24.043 -13.08,-16.05 -19.62,-35.054 -19.62,-57.144 0,-20.32 5.63,-38.262 16.9,-53.856 11.27,-15.597 27.24,-23.39 47.92,-23.39 17.93,0 33.07,5.957 45.45,17.805 12.36,11.902 20.8,24.832 25.32,38.789 l -5.76,1.98 c -6.69,-11.074 -14,-19.629 -21.88,-25.644 -7.9,-6.055 -17.59,-9.063 -29.1,-9.063 -14.24,0 -26.57,5.813 -36.99,17.434 -10.4,11.629 -16.16,30.164 -17.25,55.625 l 104.44,0 c 0,19.629 -5.83,34.789 -17.5,45.472 -11.65,10.703 -25.24,16.035 -40.76,16.035 m -9.35,-12.05 c 12.6,0 21.59,-4.805 26.97,-14.434 2.95,-5.402 5.03,-13.559 6.24,-24.488 l -69.39,0 c 1.54,8.984 4.06,16.41 7.55,22.336 6.59,11.058 16.14,16.586 28.63,16.586 m 83.32,-142.368 81.36,0 0,5.536 c -10.28,-0.243 -17.61,1.504 -22.02,5.195 -4.41,3.644 -6.62,10.227 -6.62,19.668 l 0,74.191 c 0,6.571 2.81,12.95 8.42,19.133 5.61,6.242 10.34,9.348 14.2,9.348 2.41,0 5.73,-1.914 9.97,-5.762 4.24,-3.879 8.47,-5.793 12.66,-5.793 4.1,0 7.49,1.524 10.21,4.617 2.71,3.09 4.05,6.879 4.05,11.391 0,5.059 -1.76,9.277 -5.3,12.617 -3.55,3.359 -8.13,5.039 -13.75,5.039 -7.08,0 -13.91,-2.754 -20.49,-8.242 -6.56,-5.508 -13.4,-13.125 -20.47,-22.926 l 0,27.067 c 0,1.875 -0.07,3.125 -0.25,3.711 -0.17,0.585 -0.62,0.898 -1.4,0.898 -5.78,-2.637 -11.39,-5.02 -16.84,-7.109 -2.52,-0.996 -7.04,-2.657 -13.59,-4.961 -6.54,-2.325 -12.92,-4.571 -19.14,-6.758 l 0,-5.527 c 1.97,0.429 3.86,0.8 5.66,1.074 1.8,0.273 3.26,0.41 4.34,0.41 5.37,0 9.05,-2.363 11.07,-7.035 2.02,-4.676 3.03,-12.453 3.03,-23.332 l 0,-74.325 c 0,-8.781 -1.64,-14.55 -4.95,-17.238 -3.3,-2.695 -10.02,-4.472 -20.15,-5.351 l 0,-5.536 z m 173.23,151.918 0,40.622 c 0,1.445 -0.13,2.265 -0.42,2.48 -0.26,0.215 -1.09,0.332 -2.48,0.332 -12.3,-16.73 -20.13,-27.047 -23.43,-30.953 -3.33,-3.906 -8.74,-9.004 -16.23,-15.274 -2.63,-2.187 -4.19,-3.574 -4.68,-4.179 -0.49,-0.606 -0.74,-1.446 -0.74,-2.539 0,-0.547 0.14,-0.977 0.42,-1.328 0.27,-0.313 0.69,-0.645 1.24,-0.977 l 17.94,0 0,-99.809 c 0,-11.066 1.25,-19.738 3.79,-26.007 4.59,-11.524 13.34,-17.293 26.23,-17.293 5.9,0 12.04,1.629 18.37,4.832 6.34,3.175 12.36,8.691 18.05,16.418 l 3.61,5 -4.3,3.621 c -3.72,-4.004 -7.07,-6.914 -9.98,-8.77 -2.91,-1.844 -6.35,-2.761 -10.33,-2.761 -7.69,0 -12.87,3.777 -15.52,11.316 -1.41,4.269 -2.14,10.586 -2.14,18.887 l 0.34,94.566 33.64,0 0,11.816 -33.38,0 z m 42.68,-5.019 c 5.47,-0.781 9.63,-2.441 12.42,-5.02 2.8,-2.578 6.07,-7.929 9.81,-16.039 l 51.94,-112.121 c 0.42,-1.074 0.77,-2.304 1.07,-3.691 0.31,-1.426 0.46,-2.598 0.46,-3.555 0,-4.773 -3.37,-14.609 -10.06,-29.531 -6.73,-14.902 -13.13,-22.383 -19.19,-22.383 -2.39,0 -6.37,1.035 -11.95,3.145 -5.59,2.082 -9.77,3.136 -12.6,3.136 -4.87,0 -8.92,-1.425 -12.1,-4.218 -3.19,-2.805 -4.79,-6.418 -4.79,-10.832 0,-6.719 2.69,-11.629 8.06,-14.715 5.38,-3.098 11.14,-4.621 17.3,-4.621 12.61,0 23.04,5.312 31.28,15.976 8.23,10.664 16.86,27.863 25.87,51.613 l 51.9,137.231 c 1.66,4.629 3.6,8.262 5.85,10.859 2.26,2.617 5.63,4.2 10.15,4.766 l 0,4.512 -45.33,0 0,-4.512 5.11,-0.352 c 3.08,-0.214 5.61,-0.996 7.57,-2.343 1.98,-1.348 2.98,-3.496 2.98,-6.407 0,-1.132 -0.34,-3.242 -1.07,-6.386 -0.71,-3.145 -1.24,-5.18 -1.57,-6.078 l -31.4,-83.008 -38.17,82.363 c -1.42,3.266 -2.42,5.687 -2.96,7.328 -0.55,1.602 -0.82,3.203 -0.82,4.785 0,4.258 2.53,7.129 7.58,8.574 2.62,0.899 6.7,1.407 12.2,1.524 l 0,4.512 -69.54,0 0,-4.512" />
        <path
           inkscape:connector-curvature="0"
           id="path3439"
           style="fill:#757272;fill-opacity:1;fill-rule:nonzero;stroke:none"
           d="m 1117.48,100.934 10.05,-71.809 7.53,0 c 0.44,2.7656 1.35,5.3516 2.7,7.793 1.38,2.4218 4.04,3.6445 7.99,3.6445 1.65,0 8.14,-2.0039 19.49,-5.9687 11.35,-3.9922 22.22,-5.9571 32.65,-5.9571 20.7,0 37.73,5.9375 51.04,17.793 13.32,11.8945 19.99,26.6601 19.99,44.3555 0,13.1948 -3.75,24.6288 -11.21,34.2968 -7.59,9.563 -20.64,20.078 -39.22,31.516 l -29.64,18.367 c -11.08,6.808 -19.27,13.379 -24.54,19.64 -5.27,6.18 -7.9,13.622 -7.9,22.313 0,9.68 3.42,17.277 10.31,22.727 6.87,5.457 14.92,8.191 24.14,8.191 11.87,0 23.88,-4.297 36.02,-12.871 12.14,-8.594 20.96,-23.711 26.46,-45.391 l 8.03,0 -7.53,71.817 -7.03,0 c -0.88,-3.661 -2.12,-6.465 -3.71,-8.446 -1.58,-1.972 -4.45,-2.98 -8.61,-2.98 -1.54,0 -7.7,1.914 -18.49,5.715 -10.8,3.797 -20.02,5.711 -27.67,5.711 -18.64,0 -33.6,-5.664 -44.89,-17 -11.28,-11.328 -16.92,-25.52 -16.92,-42.551 0,-12.891 4.76,-24.656 14.29,-35.32 5.14,-5.625 12.04,-11.184 20.71,-16.692 l 28.82,-18.015 c 16.54,-10.344 27.41,-18.125 32.57,-23.293 7.91,-8.145 11.85,-17.7348 11.85,-28.77 0,-12.207 -3.93,-21.7383 -11.76,-28.5742 -7.83,-6.836 -17.11,-10.2422 -27.86,-10.2422 -19.83,0 -36.45,7.8594 -49.81,23.6406 -7.68,9.043 -14.36,21.1719 -20.06,36.3598 l -7.79,0 z m 247.59,86.863 c -21.01,0 -38.05,-7.969 -51.15,-24.031 -13.1,-16.036 -19.65,-35.09 -19.65,-57.141 0,-20.3203 5.65,-38.2695 16.91,-53.8672 11.27,-15.5742 27.24,-23.3789 47.92,-23.3789 17.92,0 33.07,5.9297 45.44,17.8047 12.37,11.9023 20.81,24.832 25.34,38.8164 l -5.78,1.9453 c -6.69,-11.0547 -13.97,-19.6211 -21.87,-25.6758 -7.9,-6.0156 -17.6,-9.0429 -29.09,-9.0429 -14.26,0 -26.58,5.832 -36.99,17.4414 -10.42,11.6406 -16.17,30.176 -17.27,55.637 l 104.45,0 c 0,19.617 -5.83,34.773 -17.5,45.468 -11.66,10.692 -25.24,16.024 -40.76,16.024 m -9.35,-12.012 c 12.61,0 21.59,-4.824 26.95,-14.453 2.97,-5.398 5.06,-13.523 6.26,-24.492 l -69.38,0 c 1.52,8.984 4.05,16.426 7.54,22.344 6.59,11.046 16.12,16.601 28.63,16.601 m 86.69,-142.3905 81.34,0 0,5.5157 c -10.25,-0.2227 -17.58,1.5234 -22,5.1875 -4.4,3.6718 -6.61,10.2421 -6.61,19.6953 l 0,74.18 c 0,6.582 2.8,12.961 8.41,19.172 5.62,6.21 10.34,9.324 14.2,9.324 2.42,0 5.74,-1.934 9.97,-5.789 4.25,-3.828 8.47,-5.754 12.68,-5.754 4.07,0 7.47,1.543 10.18,4.609 2.71,3.086 4.07,6.895 4.07,11.399 0,5.039 -1.77,9.265 -5.31,12.625 -3.54,3.32 -8.12,5.019 -13.75,5.019 -7.08,0 -13.9,-2.754 -20.48,-8.242 -6.58,-5.488 -13.4,-13.152 -20.48,-22.938 l 0,27.079 c 0,1.875 -0.08,3.105 -0.25,3.703 -0.16,0.613 -0.62,0.906 -1.39,0.906 -5.78,-2.656 -11.39,-5.027 -16.84,-7.109 -2.52,-1.004 -7.04,-2.637 -13.6,-4.961 -6.54,-2.305 -12.92,-4.578 -19.13,-6.786 l 0,-5.519 c 1.96,0.449 3.84,0.801 5.65,1.094 1.81,0.273 3.26,0.41 4.35,0.41 5.34,0 9.05,-2.363 11.07,-7.02 2.02,-4.66 3.02,-12.453 3.02,-23.351 l 0,-74.3245 c 0,-8.8007 -1.65,-14.5429 -4.96,-17.2461 -3.29,-2.6875 -10,-4.4843 -20.14,-5.3632 l 0,-5.5157 z m 116.89,153.1645 0,-5.012 c 5.29,-0.664 9.3,-1.973 12.05,-3.965 4.62,-3.523 8.98,-10.156 13.04,-19.941 l 50.5,-120.6644 c 0.87,-1.875 1.71,-3.4375 2.48,-4.6875 0.78,-1.2696 1.73,-1.9141 2.82,-1.9141 1,0 1.78,0.3906 2.31,1.1719 0.58,0.7617 1.29,2.1797 2.17,4.2773 l 47.65,118.6918 c 4.5,11.328 7.93,18.535 10.28,21.672 2.37,3.125 6.25,4.91 11.62,5.359 l 0,5.012 -46.78,0 0,-5.012 c 4.16,-0.332 7.46,-0.984 9.88,-1.973 4.06,-1.875 6.1,-4.941 6.1,-9.238 0,-2.09 -0.63,-5.117 -1.91,-9.07 -1.26,-3.938 -2.6,-7.746 -4.03,-11.379 l -29.38,-73.2893 -34.71,83.0073 c -1.21,3.094 -2.07,5.411 -2.56,7.04 -0.49,1.582 -0.74,3.242 -0.74,5.019 0,3.731 1.18,6.133 3.54,7.227 2.36,1.113 6.4,1.992 12.12,2.656 l 0,5.012 -66.45,0 z m 180.22,59.558 c 0,-4.726 1.64,-8.75 4.95,-12.097 3.3,-3.352 7.38,-5.012 12.23,-5.012 4.74,0 8.79,1.66 12.17,5.012 3.35,3.347 5.04,7.371 5.04,12.097 0,4.817 -1.69,8.899 -5.04,12.238 -3.38,3.387 -7.43,5.028 -12.17,5.028 -4.85,0 -8.93,-1.699 -12.23,-5.078 -3.31,-3.418 -4.95,-7.481 -4.95,-12.188 m -21.11,-212.7225 80.1,0 0,4.5196 c -10.67,0.8789 -17.53,2.9297 -20.56,6.1054 -3.03,3.2032 -4.54,11.1211 -4.54,23.6993 l 0,118.3792 c 0,0.879 -0.11,1.699 -0.34,2.48 -0.88,0 -2.84,-0.664 -5.92,-1.992 -7.57,-3.231 -20.95,-7.969 -40.15,-14.277 l -7.08,-2.332 0,-5.012 c 5.49,1.555 8.82,2.422 9.97,2.656 1.14,0.215 2.32,0.313 3.54,0.313 5.27,0 8.72,-2.254 10.38,-6.786 0.98,-2.793 1.48,-7.793 1.48,-15.011 l 0,-78.3401 c 0,-12.9492 -1.54,-20.8789 -4.62,-23.8281 -3.08,-2.9102 -10.5,-4.9493 -22.26,-6.0547 l 0,-4.5196 z m 171.31,155.4375 c -22.02,0 -40.23,-8.191 -54.67,-24.57 -14.41,-16.328 -21.62,-35.879 -21.62,-58.621 0,-23.1644 6.6,-41.4769 19.79,-55.0004 13.2,-13.4961 28.38,-20.2656 45.54,-20.2656 17.49,0 32.89,7.3945 46.2,22.1289 6.91,7.7149 13.51,18.1641 19.79,31.3867 l -4.61,2.8047 c -6.39,-9.3476 -12.11,-16.1836 -17.18,-20.4805 -8.92,-7.4609 -19.12,-11.2109 -30.56,-11.2109 -16.17,0 -29.04,6.582 -38.56,19.7852 -9.54,13.2031 -14.29,28.1059 -14.29,44.6879 0,18.144 4.31,32.695 12.97,43.652 8.66,10.918 19.27,16.406 31.82,16.406 5.96,0 10.75,-1.152 14.4,-3.457 3.51,-2.43 5.99,-6.523 7.44,-12.351 l 1.98,-7.903 c 1.32,-5.039 3.44,-8.894 6.37,-11.511 2.91,-2.629 6.3,-3.938 10.15,-3.938 5.31,0 9.21,1.543 11.74,4.668 2.55,3.098 3.8,6.437 3.8,10.039 0,8.418 -4.97,16.133 -14.93,23.184 -9.96,7.031 -21.82,10.566 -35.57,10.566 m 143.03,-1.035 c -21.02,0 -38.07,-7.969 -51.15,-24.031 -13.09,-16.036 -19.64,-35.09 -19.64,-57.141 0,-20.3203 5.62,-38.2695 16.89,-53.8672 11.29,-15.5742 27.26,-23.3789 47.93,-23.3789 17.92,0 33.09,5.9297 45.44,17.8047 12.37,11.9023 20.81,24.832 25.32,38.8164 l -5.76,1.9453 c -6.69,-11.0547 -13.96,-19.6211 -21.87,-25.6758 -7.88,-6.0156 -17.58,-9.0429 -29.09,-9.0429 -14.24,0 -26.58,5.832 -36.98,17.4414 -10.43,11.6406 -16.18,30.176 -17.28,55.637 l 104.46,0 c 0,19.617 -5.83,34.773 -17.49,45.468 -11.67,10.692 -25.26,16.024 -40.78,16.024 m -9.35,-12.012 c 12.6,0 21.6,-4.824 26.97,-14.453 2.96,-5.398 5.05,-13.523 6.25,-24.492 l -69.4,0 c 1.53,8.984 4.05,16.426 7.56,22.344 6.57,11.046 16.12,16.601 28.62,16.601 m 99.4,-143.6405 4.51,0 c 0.55,1.3555 1.31,2.4883 2.29,3.4571 1,0.957 2.14,1.4531 3.46,1.4531 1.52,0 6.45,-1.1211 14.79,-3.3399 8.32,-2.207 15.75,-3.3398 22.32,-3.3398 15.66,0 28.33,4.1211 38.02,12.3555 9.69,8.2304 14.53,18.8164 14.53,31.7656 0,16.9141 -11.7,31.7189 -35.09,44.4529 l -21.76,11.68 c -15.16,7.871 -22.75,16.875 -22.75,26.973 0,6.367 2.22,11.894 6.6,16.593 4.41,4.735 10.44,7.098 18.14,7.098 12.86,0 22.7,-5.469 29.52,-16.426 3.73,-5.898 6.69,-14.14 8.9,-24.746 l 5.15,0 -1.26,45.938 -4.02,0 c -0.67,-1.27 -1.42,-2.188 -2.3,-2.774 -0.9,-0.586 -2.3,-0.859 -4.28,-0.859 -0.9,0 -4.82,1.113 -11.79,3.32 -6.98,2.199 -13.37,3.34 -19.2,3.34 -13.28,0 -24.33,-3.945 -33.12,-11.875 -8.79,-7.898 -13.17,-17.988 -13.17,-30.281 0,-9.973 3.2,-18.664 9.6,-25.996 6.39,-7.356 16.36,-14.668 29.87,-21.8871 L 2180.23,88.5 c 6.92,-4.043 11.78,-8.2422 14.51,-12.5 2.76,-4.2773 4.13,-8.7109 4.13,-13.3008 0,-7.2656 -2.39,-13.1445 -7.17,-17.6953 -4.78,-4.5586 -11.28,-6.8359 -19.52,-6.8359 -14.83,0 -26.09,6.1328 -33.78,18.4179 -4.28,6.6993 -7.69,16.2891 -10.21,28.8086 l -5.39,0 0,-53.25" />
        <path
           inkscape:connector-curvature="0"
           id="path3441"
           style="fill:#757272;fill-opacity:1;fill-rule:nonzero;stroke:none"
           d="m 2277.32,64.457 7.56,0 c 2.48,0 6.49,0.625 6.49,4.7852 0,2.0117 -1.38,4.4726 -5.87,4.4726 l -8.18,0 0,-9.2578 z m 0,-19.2968 -7.25,0 0,34.1406 15.89,0 c 2.01,0 12.99,0 12.99,-10.2031 0,-6.4961 -4.64,-8.3516 -6.34,-9.0938 l 6.34,-14.8437 -7.73,0 -5.55,13.5937 -8.35,0 0,-13.5937 z m 6.18,-9.1016 c 14.37,0 26.09,11.7109 26.09,26.0742 0,14.6797 -11.72,26.2617 -26.09,26.2617 -14.21,0 -26.09,-11.582 -26.09,-26.2617 0,-14.3633 11.74,-26.0742 26.09,-26.0742 z m 0,58.0664 c 17.3,0 31.82,-14.0703 31.82,-31.9922 0,-17.4492 -14.21,-31.7969 -31.82,-31.7969 -17.6,0 -31.82,14.3477 -31.82,31.7969 0,17.9219 14.37,31.9922 31.82,31.9922" />
      </g>
    </g>
  </g>
</svg>
