<?xml version="1.0" standalone="no"?>
<!DOCTYPE svg PUBLIC "-//W3C//DTD SVG 20010904//EN"
 "http://www.w3.org/TR/2001/REC-SVG-20010904/DTD/svg10.dtd">
<svg version="1.0" xmlns="http://www.w3.org/2000/svg"
 width="700.000000pt" height="700.000000pt" viewBox="0 0 700.000000 700.000000"
 preserveAspectRatio="xMidYMid meet">
<metadata>
Created by potrace 1.11, written by Peter Selinger 2001-2013
</metadata>
<g transform="translate(0.000000,700.000000) scale(0.100000,-0.100000)"
fill="#000000" stroke="none">
<path d="M1751 4959 l-1748 -1749 432 0 c337 0 434 -3 437 -12 2 -7 4 -373 4
-814 l-1 -801 -44 -49 c-24 -27 -96 -105 -161 -174 -65 -69 -132 -141 -150
-160 -18 -19 -64 -69 -103 -110 -241 -253 -352 -373 -355 -381 -4 -9 11 -23
191 -192 181 -170 222 -207 228 -207 4 0 81 81 228 239 82 89 149 159 157 164
6 3 9 -83 9 -206 l0 -212 2625 0 2625 0 1 1450 c1 798 2 1453 3 1458 0 4 195
7 431 7 237 0 430 2 430 4 0 2 -189 193 -420 423 -231 231 -420 424 -420 430
0 5 191 146 425 313 l425 303 0 360 0 359 -32 -24 c-221 -165 -731 -519 -737
-512 -4 5 -52 71 -105 147 -54 75 -101 137 -104 137 -4 -1 -92 -120 -197 -266
-104 -146 -196 -270 -203 -276 -9 -8 -267 244 -1067 1044 l-1055 1055 -1749
-1748z m2638 37 c484 -484 877 -884 874 -890 -3 -6 -31 -45 -60 -86 -146 -201
-389 -538 -407 -565 -12 -17 -33 -46 -47 -65 -14 -19 -167 -231 -339 -470
-172 -239 -315 -438 -319 -443 -4 -4 -7 90 -7 209 1 119 -1 219 -4 223 -3 4
-240 7 -526 7 l-521 0 -272 182 c-150 100 -276 182 -281 182 -9 0 -45 -38
-305 -316 -60 -64 -126 -134 -145 -154 -29 -31 -114 -121 -309 -329 -212 -227
-255 -271 -259 -267 -3 4 -6 1551 -2 1643 0 10 212 224 663 668 95 93 170 174
169 180 -2 5 0 7 4 3 4 -4 104 89 223 206 659 654 977 965 984 963 4 -1 403
-398 886 -881z m1154 -2763 c-1 -687 -3 -1273 -3 -1303 l0 -55 -2040 0 -2040
0 -1 127 c0 71 0 171 0 223 0 52 0 101 0 108 1 16 13 30 112 135 40 43 107
113 148 157 146 155 329 350 356 380 45 49 150 161 303 322 78 83 152 163 163
177 l20 26 178 -120 179 -119 -2 -121 c0 -67 2 -124 7 -127 4 -2 4 -10 0 -16
-4 -6 -7 -202 -8 -434 0 -416 0 -423 20 -424 11 0 273 -2 582 -2 368 -1 564 1
566 8 1 6 2 83 2 173 -1 128 1 162 12 160 7 -2 60 62 117 142 58 80 118 163
134 185 28 38 210 291 465 645 65 91 125 174 133 185 8 11 143 199 300 418
158 218 289 397 293 397 3 0 5 -561 4 -1247z"/>
<path d="M4959 6366 c-1 -89 -1 -201 1 -211 1 -5 2 -12 1 -15 -2 -4 -1 -256 0
-321 0 -13 856 -879 869 -879 3 0 5 332 4 737 l-1 738 -436 1 -437 0 -1 -50z"/>
</g>
</svg>
